<?xml version="1.0" encoding="UTF-8"?>
<svg version="1.1" xmlns="http://www.w3.org/2000/svg" width="612" height="612">
<path d="M0 0 C201.96 0 403.92 0 612 0 C612 201.96 612 403.92 612 612 C410.04 612 208.08 612 0 612 C0 410.04 0 208.08 0 0 Z " fill="#FEFEFE" transform="translate(0,0)"/>
<path d="M0 0 C1.88579094 -0.00967334 1.88579094 -0.00967334 3.80967867 -0.0195421 C5.20227894 -0.01659989 6.59487881 -0.01346446 7.98747826 -0.01015663 C9.4688844 -0.01389322 10.95028858 -0.01849478 12.43168962 -0.02388728 C16.50374528 -0.03613204 20.57571888 -0.03585506 24.64778876 -0.03349853 C29.03923992 -0.03309072 33.43066463 -0.04412617 37.8221035 -0.05361366 C46.42713503 -0.07023374 55.03213917 -0.0757237 63.63718541 -0.07683842 C70.63306717 -0.07778861 77.6289399 -0.08189744 84.6248188 -0.08823967 C104.46107058 -0.10585638 124.29730071 -0.1150781 144.13356037 -0.11357872 C145.73796252 -0.11345885 145.73796252 -0.11345885 147.37477684 -0.11333656 C148.44568524 -0.1132548 149.51659363 -0.11317304 150.6199538 -0.1130888 C167.96839905 -0.11227622 185.31675741 -0.13140563 202.66517754 -0.1596133 C220.48004064 -0.18835062 238.29486138 -0.20215306 256.10974824 -0.20042574 C266.11070191 -0.19976204 276.11156455 -0.20524554 286.11249733 -0.22678185 C294.62950847 -0.24500499 303.14638733 -0.24933181 311.66340955 -0.235763 C316.0070712 -0.22923851 320.35047916 -0.2290972 324.69411659 -0.2464695 C328.67552424 -0.26222885 332.65647765 -0.25930766 336.63787441 -0.24190123 C338.07331025 -0.23883756 339.50878023 -0.24243982 340.94417579 -0.25362138 C353.43358557 -0.34441894 362.99884886 1.84510166 372.62917137 10.03851891 C375.89245603 13.38426924 377.95415584 16.9890753 379.79323387 21.25726891 C380.3089643 22.29912377 380.3089643 22.29912377 380.83511353 23.36202621 C382.09600877 27.17219241 382.07611663 30.78916638 382.06065941 34.75693321 C382.06519052 35.61099011 382.06972163 36.465047 382.07439005 37.34498441 C382.08704703 40.20593768 382.08541282 43.0667009 382.08376122 45.92767906 C382.0897458 47.97951057 382.09655118 50.03133983 382.10411644 52.08316612 C382.12179441 57.65782303 382.12647268 63.23241855 382.12774801 68.80710077 C382.12916957 72.29192461 382.13343935 75.77673285 382.13874245 79.26155281 C382.15725126 91.42501122 382.16541231 103.58842579 382.16383934 115.75189781 C382.1626389 127.07909341 382.18372 138.40609817 382.21532667 149.73324549 C382.24151131 159.46508161 382.25220566 169.1968555 382.25092852 178.92872655 C382.25041937 184.73785951 382.25607608 190.54682301 382.27728462 196.35592079 C382.29670277 201.82413609 382.29676684 207.29202098 382.28225136 212.76024818 C382.28016636 214.76165819 382.28484565 216.76308907 382.29697227 218.76446342 C382.37349805 232.27494812 381.82612374 243.40530106 372.78932762 254.24945641 C365.82329103 261.2563895 357.64730423 264.9632326 347.79084188 265.38607007 C346.72371502 265.38785864 345.65658817 265.38964721 344.55712414 265.39148998 C343.3188395 265.39594783 342.08055486 265.40040567 340.80474645 265.4049986 C339.43867035 265.40490932 338.07259425 265.40471949 336.70651817 265.40443993 C335.24899914 265.40774148 333.79148102 265.41146766 332.33396405 265.41558141 C328.33259837 265.42557599 324.33124769 265.42931408 320.3298713 265.43197072 C316.01274616 265.43588121 311.69563283 265.44545888 307.37851524 265.45418358 C296.95595986 265.47392475 286.53340355 265.48401025 276.11083415 265.49291137 C271.20051004 265.49729725 266.290187 265.5026632 261.37986374 265.50790024 C245.05416939 265.52490855 228.7284757 265.53940304 212.40277386 265.54664898 C208.16842523 265.54855881 203.93407661 265.55047915 199.69972801 265.55243492 C198.64732881 265.55291866 197.5949296 265.5534024 196.51063951 265.5539008 C179.45972181 265.56220244 162.40887422 265.58754341 145.35798714 265.6200156 C127.8459405 265.65309382 110.33392948 265.67109835 92.82185143 265.67429322 C82.99193323 265.67645737 73.16211735 265.68519247 63.33222961 265.71075439 C54.96164025 265.73247162 46.59117809 265.74050669 38.22056375 265.73078761 C33.95182315 265.72624617 29.68334495 265.72812007 25.41464043 265.74754906 C21.5017439 265.76520444 17.58930075 265.76416406 13.67639925 265.74865177 C12.2658887 265.74627931 10.85534656 265.75058044 9.44488422 265.76248042 C-2.87818995 265.85995442 -12.91556364 263.69801808 -22.20676613 255.25726891 C-31.33480474 246.12923029 -32.84321526 235.99601528 -32.87330055 223.60939598 C-32.86198726 221.67227448 -32.85015992 219.73515593 -32.83786964 217.79804039 C-32.84301431 215.73384551 -32.8502997 213.66965503 -32.85955238 211.60547447 C-32.87800353 206.02488707 -32.8651678 200.44477992 -32.84546208 194.86421275 C-32.82902459 189.01126319 -32.83789547 183.15834283 -32.84298134 177.30537987 C-32.84749623 167.47945078 -32.83166895 157.65371244 -32.80368996 147.82782555 C-32.77163203 136.48228092 -32.77165934 125.13708005 -32.78890473 113.791511 C-32.80479019 102.85700401 -32.79802379 91.92262256 -32.78096771 80.98812103 C-32.7741113 76.34361029 -32.77511518 71.69920059 -32.78251266 67.05469131 C-32.79019622 61.58225001 -32.77798157 56.1101981 -32.75066376 50.6378231 C-32.74380092 48.63439209 -32.74365929 46.63092457 -32.75087929 44.62749481 C-32.79134222 31.93324094 -32.34120292 21.49219197 -24.11301613 11.14398766 C-17.56829042 4.66631856 -9.25180805 0.01200517 0 0 Z " fill="#FDFDFD" transform="translate(131.20676612854004,197.74273109436035)"/>
<path d="M0 0 C1.88579094 -0.00967334 1.88579094 -0.00967334 3.80967867 -0.0195421 C5.20227894 -0.01659989 6.59487881 -0.01346446 7.98747826 -0.01015663 C9.4688844 -0.01389322 10.95028858 -0.01849478 12.43168962 -0.02388728 C16.50374528 -0.03613204 20.57571888 -0.03585506 24.64778876 -0.03349853 C29.03923992 -0.03309072 33.43066463 -0.04412617 37.8221035 -0.05361366 C46.42713503 -0.07023374 55.03213917 -0.0757237 63.63718541 -0.07683842 C70.63306717 -0.07778861 77.6289399 -0.08189744 84.6248188 -0.08823967 C104.46107058 -0.10585638 124.29730071 -0.1150781 144.13356037 -0.11357872 C145.73796252 -0.11345885 145.73796252 -0.11345885 147.37477684 -0.11333656 C148.44568524 -0.1132548 149.51659363 -0.11317304 150.6199538 -0.1130888 C167.96839905 -0.11227622 185.31675741 -0.13140563 202.66517754 -0.1596133 C220.48004064 -0.18835062 238.29486138 -0.20215306 256.10974824 -0.20042574 C266.11070191 -0.19976204 276.11156455 -0.20524554 286.11249733 -0.22678185 C294.62950847 -0.24500499 303.14638733 -0.24933181 311.66340955 -0.235763 C316.0070712 -0.22923851 320.35047916 -0.2290972 324.69411659 -0.2464695 C328.67552424 -0.26222885 332.65647765 -0.25930766 336.63787441 -0.24190123 C338.07331025 -0.23883756 339.50878023 -0.24243982 340.94417579 -0.25362138 C353.43358557 -0.34441894 362.99884886 1.84510166 372.62917137 10.03851891 C375.89245603 13.38426924 377.95415584 16.9890753 379.79323387 21.25726891 C380.3089643 22.29912377 380.3089643 22.29912377 380.83511353 23.36202621 C382.09600877 27.17219241 382.07611663 30.78916638 382.06065941 34.75693321 C382.06519052 35.61099011 382.06972163 36.465047 382.07439005 37.34498441 C382.08704703 40.20593768 382.08541282 43.0667009 382.08376122 45.92767906 C382.0897458 47.97951057 382.09655118 50.03133983 382.10411644 52.08316612 C382.12179441 57.65782303 382.12647268 63.23241855 382.12774801 68.80710077 C382.12916957 72.29192461 382.13343935 75.77673285 382.13874245 79.26155281 C382.15725126 91.42501122 382.16541231 103.58842579 382.16383934 115.75189781 C382.1626389 127.07909341 382.18372 138.40609817 382.21532667 149.73324549 C382.24151131 159.46508161 382.25220566 169.1968555 382.25092852 178.92872655 C382.25041937 184.73785951 382.25607608 190.54682301 382.27728462 196.35592079 C382.29670277 201.82413609 382.29676684 207.29202098 382.28225136 212.76024818 C382.28016636 214.76165819 382.28484565 216.76308907 382.29697227 218.76446342 C382.37349805 232.27494812 381.82612374 243.40530106 372.78932762 254.24945641 C365.82329103 261.2563895 357.64730423 264.9632326 347.79084188 265.38607007 C346.72371502 265.38785864 345.65658817 265.38964721 344.55712414 265.39148998 C343.3188395 265.39594783 342.08055486 265.40040567 340.80474645 265.4049986 C339.43867035 265.40490932 338.07259425 265.40471949 336.70651817 265.40443993 C335.24899914 265.40774148 333.79148102 265.41146766 332.33396405 265.41558141 C328.33259837 265.42557599 324.33124769 265.42931408 320.3298713 265.43197072 C316.01274616 265.43588121 311.69563283 265.44545888 307.37851524 265.45418358 C296.95595986 265.47392475 286.53340355 265.48401025 276.11083415 265.49291137 C271.20051004 265.49729725 266.290187 265.5026632 261.37986374 265.50790024 C245.05416939 265.52490855 228.7284757 265.53940304 212.40277386 265.54664898 C208.16842523 265.54855881 203.93407661 265.55047915 199.69972801 265.55243492 C198.64732881 265.55291866 197.5949296 265.5534024 196.51063951 265.5539008 C179.45972181 265.56220244 162.40887422 265.58754341 145.35798714 265.6200156 C127.8459405 265.65309382 110.33392948 265.67109835 92.82185143 265.67429322 C82.99193323 265.67645737 73.16211735 265.68519247 63.33222961 265.71075439 C54.96164025 265.73247162 46.59117809 265.74050669 38.22056375 265.73078761 C33.95182315 265.72624617 29.68334495 265.72812007 25.41464043 265.74754906 C21.5017439 265.76520444 17.58930075 265.76416406 13.67639925 265.74865177 C12.2658887 265.74627931 10.85534656 265.75058044 9.44488422 265.76248042 C-2.87818995 265.85995442 -12.91556364 263.69801808 -22.20676613 255.25726891 C-31.33480474 246.12923029 -32.84321526 235.99601528 -32.87330055 223.60939598 C-32.86198726 221.67227448 -32.85015992 219.73515593 -32.83786964 217.79804039 C-32.84301431 215.73384551 -32.8502997 213.66965503 -32.85955238 211.60547447 C-32.87800353 206.02488707 -32.8651678 200.44477992 -32.84546208 194.86421275 C-32.82902459 189.01126319 -32.83789547 183.15834283 -32.84298134 177.30537987 C-32.84749623 167.47945078 -32.83166895 157.65371244 -32.80368996 147.82782555 C-32.77163203 136.48228092 -32.77165934 125.13708005 -32.78890473 113.791511 C-32.80479019 102.85700401 -32.79802379 91.92262256 -32.78096771 80.98812103 C-32.7741113 76.34361029 -32.77511518 71.69920059 -32.78251266 67.05469131 C-32.79019622 61.58225001 -32.77798157 56.1101981 -32.75066376 50.6378231 C-32.74380092 48.63439209 -32.74365929 46.63092457 -32.75087929 44.62749481 C-32.79134222 31.93324094 -32.34120292 21.49219197 -24.11301613 11.14398766 C-17.56829042 4.66631856 -9.25180805 0.01200517 0 0 Z M-8.20676613 28.25726891 C-9.77784025 31.39941715 -9.35101833 34.75888686 -9.34720802 38.20876122 C-9.35017915 39.03998692 -9.35315027 39.87121262 -9.35621142 40.72762698 C-9.36492281 43.52894019 -9.36640873 46.33021078 -9.36789894 49.13153648 C-9.3725254 51.13354649 -9.37754982 53.13555562 -9.38294411 55.13756371 C-9.39608687 60.58802005 -9.40251673 66.03846408 -9.40695477 71.4889338 C-9.40988251 74.89177763 -9.41398674 78.29461805 -9.41845894 81.69746017 C-9.43213889 92.33720567 -9.44180307 102.97694345 -9.44566083 113.61669713 C-9.45014278 125.91159578 -9.46769501 138.20638332 -9.49666142 150.50124818 C-9.51825665 159.99598254 -9.52836396 169.49068559 -9.52970195 178.98544425 C-9.53075154 184.66026651 -9.53669199 190.33498441 -9.55452156 196.00978088 C-9.57096489 201.34738385 -9.57317593 206.68480357 -9.56438255 212.02242279 C-9.56361017 213.9828115 -9.56798131 215.94320992 -9.57784081 217.90357399 C-9.5905018 220.57754446 -9.58471545 223.2508602 -9.5742588 225.92482567 C-9.58231521 226.70265067 -9.59037161 227.48047568 -9.59867215 228.28187114 C-9.55738002 232.78923982 -9.10630961 235.74657083 -6.20676613 239.25726891 C-2.40877577 241.99987008 0.21963985 242.6330721 4.87341022 242.63758564 C6.10233712 242.64602558 7.33126402 242.65446552 8.59743112 242.66316122 C9.95810498 242.65736618 11.31877764 242.65128516 12.67944908 242.64494896 C14.12729734 242.64912175 15.57514232 242.65459896 17.02298123 242.66126877 C21.00211826 242.6757494 24.98104862 242.67147054 28.96019709 242.66410196 C33.25135417 242.65937905 37.54246597 242.67187234 41.83360863 242.68211937 C50.24046029 242.69932987 58.64723729 242.70014273 67.054102 242.69490647 C73.8860335 242.69086777 80.71794291 242.69230474 87.54987335 242.69765472 C88.52161536 242.69840315 89.49335737 242.69915157 90.4945461 242.69992267 C92.46853105 242.70145412 94.442516 242.70299247 96.41650093 242.70453764 C114.93495146 242.71827078 133.45335976 242.71281923 151.97180934 242.70135242 C168.91947917 242.69141883 185.86703985 242.70436146 202.81469285 242.72828662 C220.21030238 242.75265943 237.60586104 242.76228999 255.00148731 242.75563389 C264.77032747 242.75213767 274.53908365 242.75440029 284.30791092 242.77188492 C292.62378538 242.78658417 300.93951673 242.78727221 309.25538831 242.76981401 C313.49918944 242.76128286 317.74273468 242.75920579 321.98652267 242.77446556 C325.87084291 242.78825999 329.75468678 242.78361771 333.63897908 242.76422632 C335.04471301 242.7604498 336.45048462 242.76343571 337.85618513 242.77383798 C347.70800301 243.06899825 347.70800301 243.06899825 355.79323387 238.25726891 C356.40398797 237.68372893 357.01474207 237.11018896 357.64400387 236.51926899 C359.36905269 233.12389943 359.20964263 229.7875022 359.18091393 226.06526756 C359.18629946 225.23233301 359.191685 224.39939846 359.19723374 223.54122347 C359.21155851 220.74598286 359.2043985 217.95121281 359.19728661 215.15595055 C359.20298781 213.15364258 359.2099511 211.15133787 359.21808434 209.14903831 C359.23605844 203.70691757 359.23483936 198.26495768 359.22914195 192.82281613 C359.22605624 188.28238014 359.23213567 183.74197532 359.2381807 179.20154375 C359.25223829 168.49165829 359.25065437 157.78185258 359.23927879 147.07196617 C359.22779603 136.01675009 359.24187319 124.96177655 359.26867527 113.90659243 C359.29081414 104.42029517 359.29747374 94.93407415 359.29159886 85.44775289 C359.28822378 79.77965167 359.29068092 74.11170595 359.30784988 68.4436264 C359.323288 63.11413556 359.31939821 57.78500471 359.30054474 52.45552826 C359.29685018 50.49836866 359.29999246 48.54118257 359.31043053 46.58404732 C359.32358291 43.91436483 359.3121444 41.24588421 359.29443932 38.57625389 C359.30404432 37.79979312 359.31364933 37.02333236 359.3235454 36.22334248 C359.27431538 32.62123473 358.91524976 30.4555641 357.01190853 27.36233234 C353.08093138 23.63264794 350.18749528 23.00704323 344.80487061 22.99720669 C343.57096797 22.9901411 342.33706533 22.98307551 341.0657717 22.97579581 C339.69429596 22.97804722 338.32282053 22.98049373 336.95134544 22.98311424 C335.49611204 22.97866277 334.04088107 22.97334903 332.58565366 22.96724552 C328.58150055 22.95304435 324.57742498 22.95140263 320.57325029 22.95184243 C316.25685738 22.9501961 311.94049659 22.93713315 307.62412071 22.92564964 C298.1841736 22.90278729 288.74424894 22.8948779 279.3042779 22.8898232 C273.41188439 22.886568 267.51949743 22.88004665 261.62710762 22.87282181 C245.31778295 22.85325527 229.00846436 22.83685104 212.6991272 22.83394527 C211.65521028 22.8337577 210.61129337 22.83357013 209.5357426 22.83337688 C207.41940999 22.83301063 205.30307738 22.83264693 203.18674476 22.83228577 C202.13617328 22.83210296 201.08560179 22.83192015 200.00319481 22.8317318 C198.95134366 22.83155125 197.89949252 22.8313707 196.81576709 22.83118468 C179.76455461 22.82764155 162.7134683 22.80061077 145.66229959 22.76323391 C128.16276517 22.7251806 110.66329341 22.70578802 93.16371667 22.70548576 C83.33558601 22.70490057 73.50760591 22.69636839 63.67951393 22.6674881 C55.31236717 22.64301414 46.94542589 22.63566437 38.57825305 22.65073562 C34.30806967 22.6579206 30.03829237 22.65697918 25.76815414 22.63432503 C21.85966399 22.61378783 17.95189344 22.61628531 14.04341154 22.63719987 C12.6288927 22.64070491 11.21432248 22.63574181 9.79987104 22.62149543 C-0.44640014 22.37785775 -0.44640014 22.37785775 -8.20676613 28.25726891 Z " fill="#040404" transform="translate(131.20676612854004,197.74273109436035)"/>
<path d="M0 0 C25.2715957 -0.79081184 48.22905747 9.53998382 66.67578125 26.3125 C82.73910993 41.69976266 93.02585496 63.76859835 93.60107422 86.12182617 C93.83285571 111.89197021 85.19215874 134.49312079 67.30859375 153.16015625 C66.50421875 154.02640625 65.69984375 154.89265625 64.87109375 155.78515625 C45.63652106 173.61232118 22.86157015 181.00934858 -3.14453125 180.46875 C-25.44625561 179.54525935 -46.7611327 168.54204217 -62.24804688 152.73291016 C-71.7476263 142.38171079 -80.25437294 128.80020669 -83.69140625 115.16015625 C-84.10712891 113.58427734 -84.10712891 113.58427734 -84.53125 111.9765625 C-89.92066285 88.90391488 -86.71866795 64.76530137 -74.58935547 44.30078125 C-61.55013648 23.60606489 -42.15718259 8.70820929 -18.44140625 2.34765625 C-12.28894415 0.9641661 -6.27967789 0.37368185 0 0 Z " fill="#FAFAFA" transform="translate(302.69140625,239.83984375)"/>
<path d="M0 0 C25.2715957 -0.79081184 48.22905747 9.53998382 66.67578125 26.3125 C82.73910993 41.69976266 93.02585496 63.76859835 93.60107422 86.12182617 C93.83285571 111.89197021 85.19215874 134.49312079 67.30859375 153.16015625 C66.50421875 154.02640625 65.69984375 154.89265625 64.87109375 155.78515625 C45.63652106 173.61232118 22.86157015 181.00934858 -3.14453125 180.46875 C-25.44625561 179.54525935 -46.7611327 168.54204217 -62.24804688 152.73291016 C-71.7476263 142.38171079 -80.25437294 128.80020669 -83.69140625 115.16015625 C-84.10712891 113.58427734 -84.10712891 113.58427734 -84.53125 111.9765625 C-89.92066285 88.90391488 -86.71866795 64.76530137 -74.58935547 44.30078125 C-61.55013648 23.60606489 -42.15718259 8.70820929 -18.44140625 2.34765625 C-12.28894415 0.9641661 -6.27967789 0.37368185 0 0 Z M-52.81640625 45.44140625 C-65.97164674 61.18071184 -69.34310332 80.18720972 -67.69140625 100.16015625 C-65.89420152 113.61789783 -60.34154809 125.73168576 -51.69140625 136.16015625 C-51.20414063 136.80339844 -50.716875 137.44664062 -50.21484375 138.109375 C-42.78196353 147.42793666 -31.79471677 154.09833104 -20.69140625 158.16015625 C-19.99982422 158.41982178 -19.30824219 158.6794873 -18.59570312 158.94702148 C-11.54225587 161.35970529 -4.97449306 161.57921676 2.43359375 161.47265625 C3.56152344 161.47587891 4.68945312 161.47910156 5.8515625 161.48242188 C22.27902275 161.37674815 36.66044325 155.47617269 49.30859375 145.16015625 C49.94023437 144.70253906 50.571875 144.24492187 51.22265625 143.7734375 C62.83512677 134.9447784 71.33967122 118.21963601 73.859375 104.06640625 C76.19706484 83.73866852 74.23585882 64.72074633 61.30859375 48.16015625 C48.71262993 32.83469405 33.43643786 21.78134503 13.30859375 19.16015625 C-13.86673247 17.28589531 -34.21188208 25.46890236 -52.81640625 45.44140625 Z " fill="#060606" transform="translate(302.69140625,239.83984375)"/>
<path d="M0 0 C10.56 0 21.12 0 32 0 C32 11.88 32 23.76 32 36 C43.88 36 55.76 36 68 36 C68 46.56 68 57.12 68 68 C56.12 68 44.24 68 32 68 C32 79.88 32 91.76 32 104 C21.44 104 10.88 104 0 104 C0 92.12 0 80.24 0 68 C-11.88 68 -23.76 68 -36 68 C-36 57.44 -36 46.88 -36 36 C-24.12 36 -12.24 36 0 36 C0 24.12 0 12.24 0 0 Z " fill="#010101" transform="translate(290,278)"/>
<path d="M0 0 C1.19279572 -0.01007584 2.38559143 -0.02015167 3.61453247 -0.03053284 C6.87104119 -0.05407519 10.12720463 -0.06406117 13.38378811 -0.0659802 C15.42370212 -0.06812022 17.46355689 -0.07453926 19.50345612 -0.08247185 C26.63548062 -0.11018776 33.76733749 -0.12248245 40.89941406 -0.12011719 C47.52239421 -0.11831711 54.14463953 -0.1499376 60.76743388 -0.19734818 C66.47389151 -0.23672679 72.18011051 -0.25266252 77.88670278 -0.25075096 C81.2859659 -0.24999025 84.68457567 -0.25830344 88.08370209 -0.29028511 C91.88193419 -0.31982845 95.6782974 -0.31099773 99.4765625 -0.29296875 C100.58550873 -0.30982727 101.69445496 -0.32668579 102.83700562 -0.34405518 C111.52403765 -0.23978476 118.58046243 2.30454049 125.0048027 8.31380367 C129.18608526 12.84394535 131.26898277 17.274926 131.19238281 23.51782227 C131.1873877 24.35804932 131.18239258 25.19827637 131.17724609 26.06396484 C131.15903809 27.11479248 131.14083008 28.16562012 131.12207031 29.24829102 C131.08082031 32.61016602 131.03957031 35.97204102 130.99707031 39.43579102 C123.07707031 39.43579102 115.15707031 39.43579102 106.99707031 39.43579102 C106.99707031 34.48579102 106.99707031 29.53579102 106.99707031 24.43579102 C69.70707031 24.43579102 32.41707031 24.43579102 -6.00292969 24.43579102 C-6.33292969 29.38579102 -6.66292969 34.33579102 -7.00292969 39.43579102 C-14.92292969 39.43579102 -22.84292969 39.43579102 -31.00292969 39.43579102 C-31.08542969 36.13579102 -31.16792969 32.83579102 -31.25292969 29.43579102 C-31.2893457 28.41227539 -31.32576172 27.38875977 -31.36328125 26.33422852 C-31.45179839 18.95589669 -29.93779635 13.85475939 -25.10839844 8.22875977 C-24.47546875 7.69895508 -23.84253906 7.16915039 -23.19042969 6.62329102 C-22.56523437 6.0805957 -21.94003906 5.53790039 -21.29589844 4.97875977 C-14.2683802 0.24985056 -8.29663803 -0.01009787 0 0 Z " fill="#070707" transform="translate(256.0029296875,149.564208984375)"/>
<path d="M0 0 C0.66 0.33 1.32 0.66 2 1 C1.51789063 1.38671875 1.03578125 1.7734375 0.5390625 2.171875 C-0.09257812 2.69265625 -0.72421875 3.2134375 -1.375 3.75 C-2.00148437 4.26046875 -2.62796875 4.7709375 -3.2734375 5.296875 C-5.08312318 7.08199481 -6.00117455 8.67949644 -7 11 C-7.66 11 -8.32 11 -9 11 C-9.33 11.66 -9.66 12.32 -10 13 C-11.30915279 14.03145371 -12.64082143 15.03542166 -14 16 C-14.66 15.67 -15.32 15.34 -16 15 C-14.08643227 13.05935348 -12.16932062 11.122443 -10.25 9.1875 C-9.71117187 8.64029297 -9.17234375 8.09308594 -8.6171875 7.52929688 C-5.88259137 4.77802637 -3.20316096 2.21577882 0 0 Z " fill="#1E1E1E" transform="translate(253,257)"/>
</svg>
